<svg width="32" height="33" viewBox="0 0 32 33" fill="none" xmlns="http://www.w3.org/2000/svg">
<path d="M12.29 15.0861C12.1722 14.9901 12.026 14.9356 11.874 14.9311H11.251V18.6581H11.874C12.0261 18.6535 12.1724 18.5986 12.29 18.5021C12.3606 18.4477 12.4166 18.3767 12.4533 18.2954C12.4899 18.2141 12.5059 18.1251 12.5 18.0361V15.5481C12.5049 15.4599 12.4884 15.3718 12.4518 15.2913C12.4152 15.2108 12.3597 15.1404 12.29 15.0861ZM22.432 8.78613H9.568C8.704 8.78613 8.002 9.48613 8 10.3501V23.2221C8.00106 23.6373 8.16673 24.0351 8.46067 24.3283C8.75461 24.6215 9.15283 24.7861 9.568 24.7861H22.432C23.296 24.7861 23.998 24.0861 24 23.2221V10.3501C23.9989 9.93497 23.8333 9.53717 23.5393 9.24397C23.2454 8.95078 22.8472 8.78613 22.432 8.78613ZM13.507 18.0431C13.5152 18.2703 13.4758 18.4967 13.3914 18.7078C13.307 18.9188 13.1794 19.1099 13.0168 19.2687C12.8542 19.4276 12.6601 19.5507 12.4471 19.6301C12.2342 19.7096 12.0069 19.7437 11.78 19.7301H10.123V13.8211H11.815C12.0392 13.8126 12.2628 13.8504 12.4718 13.9322C12.6807 14.0141 12.8705 14.1381 13.0293 14.2966C13.1882 14.4552 13.3125 14.6448 13.3947 14.8536C13.4769 15.0624 13.5151 15.2859 13.507 15.5101V18.0431ZM17.1 14.8761H15.2V16.2481H16.363V17.3051H15.2V18.6761H17.1V19.7321H14.883C14.7884 19.7348 14.6943 19.7188 14.6059 19.6851C14.5175 19.6513 14.4367 19.6005 14.3679 19.5355C14.2992 19.4705 14.244 19.3926 14.2054 19.3062C14.1668 19.2198 14.1456 19.1267 14.143 19.0321V14.5611C14.1382 14.3704 14.2091 14.1855 14.3403 14.047C14.4715 13.9085 14.6523 13.8276 14.843 13.8221H17.1V14.8761ZM20.8 18.9941C20.329 20.0941 19.484 19.8741 19.106 18.9941L17.734 13.8221H18.9L19.958 17.8861L21.014 13.8241H22.178L20.8 18.9941Z" fill="white"/>
</svg>
