<svg width="32" height="33" viewBox="0 0 32 33" fill="none" xmlns="http://www.w3.org/2000/svg">
<path d="M16 8.98608C11.6 8.98608 8 12.5861 8 16.9861C8 20.4861 10.3 23.4861 13.5 24.5861C13.9 24.6861 14 24.3861 14 24.1861V22.7861C11.8 23.2861 11.3 21.7861 11.3 21.7861C10.9 20.8861 10.4 20.5861 10.4 20.5861C9.7 20.0861 10.5 20.0861 10.5 20.0861C11.3 20.1861 11.7 20.8861 11.7 20.8861C12.4 22.1861 13.6 21.7861 14 21.5861C14.1 21.0861 14.3 20.6861 14.5 20.4861C12.7 20.2861 10.9 19.5861 10.9 16.4861C10.9 15.5861 11.2 14.8861 11.7 14.3861C11.6 14.1861 11.3 13.3861 11.8 12.2861C11.8 12.2861 12.5 12.0861 14 13.0861C14.6 12.8861 15.3 12.7861 16 12.7861C16.7 12.7861 17.4 12.8861 18 13.0861C19.5 12.0861 20.2 12.2861 20.2 12.2861C20.6 13.3861 20.4 14.1861 20.3 14.3861C20.8 14.9861 21.1 15.6861 21.1 16.4861C21.1 19.5861 19.2 20.1861 17.4 20.3861C17.7 20.7861 18 21.2861 18 21.9861V24.1861C18 24.3861 18.1 24.6861 18.6 24.5861C21.8 23.4861 24.1 20.4861 24.1 16.9861C24 12.5861 20.4 8.98608 16 8.98608Z" fill="white"/>
</svg>
